<svg width="12" height="12" viewBox="0 0 12 12" fill="none" xmlns="http://www.w3.org/2000/svg">
<path fill-rule="evenodd" clip-rule="evenodd" d="M0.0367978 4.57557C0.0153336 2.60377 0.00660719 1.80212 0.736293 1.04032C1.50209 0.242235 2.33838 0.249254 5.26687 0.273832C5.87327 0.278922 6.56938 0.284764 7.37314 0.284367C8.66966 0.286639 8.74331 0.297384 8.98904 0.333237L9.00311 0.335289C10.1264 0.497775 10.979 1.30002 11.0877 2.69203C11.1024 2.87813 11.1024 8.79939 11.0881 8.98178C10.9859 10.2886 10.2379 11.0381 9.3186 11.2765C8.63004 11.4556 2.52101 11.4556 1.83153 11.2774C-0.0666993 10.7843 -0.0211783 8.91441 0.0289515 6.85517C0.0371316 6.51915 0.0454345 6.17808 0.0454345 5.83714C0.0454345 5.36898 0.0408852 4.95106 0.0367978 4.57557ZM5.16799 1.73615C5.3016 1.73712 5.43624 1.7381 5.57143 1.7381H5.56959C5.73039 1.7381 5.88589 1.73704 6.03633 1.73602C7.34014 1.72718 8.26388 1.72091 8.96585 2.42647C9.6651 3.12887 9.66013 4.0421 9.65277 5.39548C9.65199 5.53881 9.65118 5.68707 9.65118 5.84053C9.65118 5.98246 9.65169 6.11914 9.65218 6.25089C9.65587 7.23983 9.65852 7.95135 9.43702 8.52734C8.87684 9.9719 7.45315 9.95889 5.99164 9.94553C5.85137 9.94425 5.71075 9.94296 5.57051 9.94296C5.43618 9.94296 5.30224 9.94395 5.16918 9.94492C3.65801 9.956 2.26068 9.96625 1.70447 8.52734C1.48338 7.95528 1.48632 7.10462 1.48952 6.17888C1.48991 6.06707 1.4903 5.95417 1.4903 5.84053C1.4903 5.70064 1.48981 5.56566 1.48933 5.43532C1.48572 4.446 1.48308 3.72427 1.70447 3.15326C2.262 1.71506 3.64875 1.72513 5.16799 1.73615ZM5.86198 2.473C5.65624 2.47495 5.43772 2.47702 5.20574 2.47739V2.47646C2.48468 2.47924 2.22675 2.53109 2.22675 5.83868C2.22675 9.10831 2.32025 9.20182 5.57189 9.20182C5.73598 9.20182 5.89724 9.2036 6.05489 9.20534C7.61066 9.2225 8.81404 9.23578 8.89308 7.49687C9.12181 2.44214 8.75012 2.44566 5.86198 2.473ZM7.26035 3.65044C7.26035 3.3787 7.47958 3.15835 7.74994 3.15835C8.0203 3.15835 8.23953 3.3787 8.23953 3.65044C8.23953 3.92217 8.0203 4.14253 7.74994 4.14253C7.47958 4.14253 7.26035 3.92217 7.26035 3.65044ZM3.47583 5.84053C3.47583 4.6772 4.41401 3.73376 5.57143 3.73376C6.72885 3.73376 7.66658 4.6772 7.66658 5.84053C7.66658 7.00386 6.72885 7.94684 5.57143 7.94684C4.41401 7.94684 3.47583 7.00386 3.47583 5.84053ZM5.57143 4.47305C7.36997 4.47305 7.37227 7.20801 5.57143 7.20801C3.77336 7.20801 3.77059 4.47305 5.57143 4.47305Z" fill="#F8F4F8"/>
</svg>
