<svg width="200" height="200" viewBox="0 0 200 200" fill="none" xmlns="http://www.w3.org/2000/svg">
<path d="M200 0H0V200H200V0Z" fill="white"/>
<path d="M19 13H13V19H19V13Z" fill="#D3C0DE"/>
<path d="M25 13H19V19H25V13Z" fill="#D3C0DE"/>
<path d="M31 13H25V19H31V13Z" fill="#D3C0DE"/>
<path d="M37 13H31V19H37V13Z" fill="#D3C0DE"/>
<path d="M43 13H37V19H43V13Z" fill="#D3C0DE"/>
<path d="M49 13H43V19H49V13Z" fill="#D3C0DE"/>
<path d="M55 13H49V19H55V13Z" fill="#D3C0DE"/>
<path d="M73 13H67V19H73V13Z" fill="#D3C0DE"/>
<path d="M91 13H85V19H91V13Z" fill="#D3C0DE"/>
<path d="M97 13H91V19H97V13Z" fill="#D3C0DE"/>
<path d="M115 13H109V19H115V13Z" fill="#D3C0DE"/>
<path d="M121 13H115V19H121V13Z" fill="#D3C0DE"/>
<path d="M127 13H121V19H127V13Z" fill="#D3C0DE"/>
<path d="M133 13H127V19H133V13Z" fill="#D3C0DE"/>
<path d="M151 13H145V19H151V13Z" fill="#D3C0DE"/>
<path d="M157 13H151V19H157V13Z" fill="#D3C0DE"/>
<path d="M163 13H157V19H163V13Z" fill="#D3C0DE"/>
<path d="M169 13H163V19H169V13Z" fill="#D3C0DE"/>
<path d="M175 13H169V19H175V13Z" fill="#D3C0DE"/>
<path d="M181 13H175V19H181V13Z" fill="#D3C0DE"/>
<path d="M187 13H181V19H187V13Z" fill="#D3C0DE"/>
<path d="M19 19H13V25H19V19Z" fill="#D3C0DE"/>
<path d="M55 19H49V25H55V19Z" fill="#D3C0DE"/>
<path d="M79 19H73V25H79V19Z" fill="#D3C0DE"/>
<path d="M85 19H79V25H85V19Z" fill="#D3C0DE"/>
<path d="M91 19H85V25H91V19Z" fill="#D3C0DE"/>
<path d="M103 19H97V25H103V19Z" fill="#D3C0DE"/>
<path d="M109 19H103V25H109V19Z" fill="#D3C0DE"/>
<path d="M115 19H109V25H115V19Z" fill="#D3C0DE"/>
<path d="M121 19H115V25H121V19Z" fill="#D3C0DE"/>
<path d="M127 19H121V25H127V19Z" fill="#D3C0DE"/>
<path d="M133 19H127V25H133V19Z" fill="#D3C0DE"/>
<path d="M139 19H133V25H139V19Z" fill="#D3C0DE"/>
<path d="M151 19H145V25H151V19Z" fill="#D3C0DE"/>
<path d="M187 19H181V25H187V19Z" fill="#D3C0DE"/>
<path d="M19 25H13V31H19V25Z" fill="#D3C0DE"/>
<path d="M31 25H25V31H31V25Z" fill="#D3C0DE"/>
<path d="M37 25H31V31H37V25Z" fill="#D3C0DE"/>
<path d="M43 25H37V31H43V25Z" fill="#D3C0DE"/>
<path d="M55 25H49V31H55V25Z" fill="#D3C0DE"/>
<path d="M67 25H61V31H67V25Z" fill="#D3C0DE"/>
<path d="M73 25H67V31H73V25Z" fill="#D3C0DE"/>
<path d="M79 25H73V31H79V25Z" fill="#D3C0DE"/>
<path d="M91 25H85V31H91V25Z" fill="#D3C0DE"/>
<path d="M97 25H91V31H97V25Z" fill="#D3C0DE"/>
<path d="M103 25H97V31H103V25Z" fill="#D3C0DE"/>
<path d="M115 25H109V31H115V25Z" fill="#D3C0DE"/>
<path d="M139 25H133V31H139V25Z" fill="#D3C0DE"/>
<path d="M151 25H145V31H151V25Z" fill="#D3C0DE"/>
<path d="M163 25H157V31H163V25Z" fill="#D3C0DE"/>
<path d="M169 25H163V31H169V25Z" fill="#D3C0DE"/>
<path d="M175 25H169V31H175V25Z" fill="#D3C0DE"/>
<path d="M187 25H181V31H187V25Z" fill="#D3C0DE"/>
<path d="M19 31H13V37H19V31Z" fill="#D3C0DE"/>
<path d="M31 31H25V37H31V31Z" fill="#D3C0DE"/>
<path d="M37 31H31V37H37V31Z" fill="#D3C0DE"/>
<path d="M43 31H37V37H43V31Z" fill="#D3C0DE"/>
<path d="M55 31H49V37H55V31Z" fill="#D3C0DE"/>
<path d="M73 31H67V37H73V31Z" fill="#D3C0DE"/>
<path d="M79 31H73V37H79V31Z" fill="#D3C0DE"/>
<path d="M85 31H79V37H85V31Z" fill="#D3C0DE"/>
<path d="M97 31H91V37H97V31Z" fill="#D3C0DE"/>
<path d="M103 31H97V37H103V31Z" fill="#D3C0DE"/>
<path d="M109 31H103V37H109V31Z" fill="#D3C0DE"/>
<path d="M127 31H121V37H127V31Z" fill="#D3C0DE"/>
<path d="M133 31H127V37H133V31Z" fill="#D3C0DE"/>
<path d="M151 31H145V37H151V31Z" fill="#D3C0DE"/>
<path d="M163 31H157V37H163V31Z" fill="#D3C0DE"/>
<path d="M169 31H163V37H169V31Z" fill="#D3C0DE"/>
<path d="M175 31H169V37H175V31Z" fill="#D3C0DE"/>
<path d="M187 31H181V37H187V31Z" fill="#D3C0DE"/>
<path d="M19 37H13V43H19V37Z" fill="#D3C0DE"/>
<path d="M31 37H25V43H31V37Z" fill="#D3C0DE"/>
<path d="M37 37H31V43H37V37Z" fill="#D3C0DE"/>
<path d="M43 37H37V43H43V37Z" fill="#D3C0DE"/>
<path d="M55 37H49V43H55V37Z" fill="#D3C0DE"/>
<path d="M79 37H73V43H79V37Z" fill="#D3C0DE"/>
<path d="M103 37H97V43H103V37Z" fill="#D3C0DE"/>
<path d="M133 37H127V43H133V37Z" fill="#D3C0DE"/>
<path d="M151 37H145V43H151V37Z" fill="#D3C0DE"/>
<path d="M163 37H157V43H163V37Z" fill="#D3C0DE"/>
<path d="M169 37H163V43H169V37Z" fill="#D3C0DE"/>
<path d="M175 37H169V43H175V37Z" fill="#D3C0DE"/>
<path d="M187 37H181V43H187V37Z" fill="#D3C0DE"/>
<path d="M19 43H13V49H19V43Z" fill="#D3C0DE"/>
<path d="M55 43H49V49H55V43Z" fill="#D3C0DE"/>
<path d="M73 43H67V49H73V43Z" fill="#D3C0DE"/>
<path d="M97 43H91V49H97V43Z" fill="#D3C0DE"/>
<path d="M121 43H115V49H121V43Z" fill="#D3C0DE"/>
<path d="M127 43H121V49H127V43Z" fill="#D3C0DE"/>
<path d="M133 43H127V49H133V43Z" fill="#D3C0DE"/>
<path d="M139 43H133V49H139V43Z" fill="#D3C0DE"/>
<path d="M151 43H145V49H151V43Z" fill="#D3C0DE"/>
<path d="M187 43H181V49H187V43Z" fill="#D3C0DE"/>
<path d="M19 49H13V55H19V49Z" fill="#D3C0DE"/>
<path d="M25 49H19V55H25V49Z" fill="#D3C0DE"/>
<path d="M31 49H25V55H31V49Z" fill="#D3C0DE"/>
<path d="M37 49H31V55H37V49Z" fill="#D3C0DE"/>
<path d="M43 49H37V55H43V49Z" fill="#D3C0DE"/>
<path d="M49 49H43V55H49V49Z" fill="#D3C0DE"/>
<path d="M55 49H49V55H55V49Z" fill="#D3C0DE"/>
<path d="M67 49H61V55H67V49Z" fill="#D3C0DE"/>
<path d="M79 49H73V55H79V49Z" fill="#D3C0DE"/>
<path d="M91 49H85V55H91V49Z" fill="#D3C0DE"/>
<path d="M103 49H97V55H103V49Z" fill="#D3C0DE"/>
<path d="M115 49H109V55H115V49Z" fill="#D3C0DE"/>
<path d="M127 49H121V55H127V49Z" fill="#D3C0DE"/>
<path d="M139 49H133V55H139V49Z" fill="#D3C0DE"/>
<path d="M151 49H145V55H151V49Z" fill="#D3C0DE"/>
<path d="M157 49H151V55H157V49Z" fill="#D3C0DE"/>
<path d="M163 49H157V55H163V49Z" fill="#D3C0DE"/>
<path d="M169 49H163V55H169V49Z" fill="#D3C0DE"/>
<path d="M175 49H169V55H175V49Z" fill="#D3C0DE"/>
<path d="M181 49H175V55H181V49Z" fill="#D3C0DE"/>
<path d="M187 49H181V55H187V49Z" fill="#D3C0DE"/>
<path d="M67 55H61V61H67V55Z" fill="#D3C0DE"/>
<path d="M73 55H67V61H73V55Z" fill="#D3C0DE"/>
<path d="M79 55H73V61H79V55Z" fill="#D3C0DE"/>
<path d="M91 55H85V61H91V55Z" fill="#D3C0DE"/>
<path d="M97 55H91V61H97V55Z" fill="#D3C0DE"/>
<path d="M103 55H97V61H103V55Z" fill="#D3C0DE"/>
<path d="M115 55H109V61H115V55Z" fill="#D3C0DE"/>
<path d="M121 55H115V61H121V55Z" fill="#D3C0DE"/>
<path d="M127 55H121V61H127V55Z" fill="#D3C0DE"/>
<path d="M133 55H127V61H133V55Z" fill="#D3C0DE"/>
<path d="M19 61H13V67H19V61Z" fill="#D3C0DE"/>
<path d="M25 61H19V67H25V61Z" fill="#D3C0DE"/>
<path d="M31 61H25V67H31V61Z" fill="#D3C0DE"/>
<path d="M43 61H37V67H43V61Z" fill="#D3C0DE"/>
<path d="M49 61H43V67H49V61Z" fill="#D3C0DE"/>
<path d="M55 61H49V67H55V61Z" fill="#D3C0DE"/>
<path d="M61 61H55V67H61V61Z" fill="#D3C0DE"/>
<path d="M67 61H61V67H67V61Z" fill="#D3C0DE"/>
<path d="M79 61H73V67H79V61Z" fill="#D3C0DE"/>
<path d="M85 61H79V67H85V61Z" fill="#D3C0DE"/>
<path d="M103 61H97V67H103V61Z" fill="#D3C0DE"/>
<path d="M109 61H103V67H109V61Z" fill="#D3C0DE"/>
<path d="M115 61H109V67H115V61Z" fill="#D3C0DE"/>
<path d="M121 61H115V67H121V61Z" fill="#D3C0DE"/>
<path d="M133 61H127V67H133V61Z" fill="#D3C0DE"/>
<path d="M139 61H133V67H139V61Z" fill="#D3C0DE"/>
<path d="M145 61H139V67H145V61Z" fill="#D3C0DE"/>
<path d="M151 61H145V67H151V61Z" fill="#D3C0DE"/>
<path d="M175 61H169V67H175V61Z" fill="#D3C0DE"/>
<path d="M25 67H19V73H25V67Z" fill="#D3C0DE"/>
<path d="M31 67H25V73H31V67Z" fill="#D3C0DE"/>
<path d="M37 67H31V73H37V67Z" fill="#D3C0DE"/>
<path d="M43 67H37V73H43V67Z" fill="#D3C0DE"/>
<path d="M67 67H61V73H67V67Z" fill="#D3C0DE"/>
<path d="M79 67H73V73H79V67Z" fill="#D3C0DE"/>
<path d="M85 67H79V73H85V67Z" fill="#D3C0DE"/>
<path d="M103 67H97V73H103V67Z" fill="#D3C0DE"/>
<path d="M109 67H103V73H109V67Z" fill="#D3C0DE"/>
<path d="M121 67H115V73H121V67Z" fill="#D3C0DE"/>
<path d="M139 67H133V73H139V67Z" fill="#D3C0DE"/>
<path d="M145 67H139V73H145V67Z" fill="#D3C0DE"/>
<path d="M151 67H145V73H151V67Z" fill="#D3C0DE"/>
<path d="M169 67H163V73H169V67Z" fill="#D3C0DE"/>
<path d="M187 67H181V73H187V67Z" fill="#D3C0DE"/>
<path d="M25 73H19V79H25V73Z" fill="#D3C0DE"/>
<path d="M37 73H31V79H37V73Z" fill="#D3C0DE"/>
<path d="M55 73H49V79H55V73Z" fill="#D3C0DE"/>
<path d="M73 73H67V79H73V73Z" fill="#D3C0DE"/>
<path d="M97 73H91V79H97V73Z" fill="#D3C0DE"/>
<path d="M139 73H133V79H139V73Z" fill="#D3C0DE"/>
<path d="M175 73H169V79H175V73Z" fill="#D3C0DE"/>
<path d="M181 73H175V79H181V73Z" fill="#D3C0DE"/>
<path d="M187 73H181V79H187V73Z" fill="#D3C0DE"/>
<path d="M19 79H13V85H19V79Z" fill="#D3C0DE"/>
<path d="M25 79H19V85H25V79Z" fill="#D3C0DE"/>
<path d="M43 79H37V85H43V79Z" fill="#D3C0DE"/>
<path d="M61 79H55V85H61V79Z" fill="#D3C0DE"/>
<path d="M67 79H61V85H67V79Z" fill="#D3C0DE"/>
<path d="M85 79H79V85H85V79Z" fill="#D3C0DE"/>
<path d="M115 79H109V85H115V79Z" fill="#D3C0DE"/>
<path d="M121 79H115V85H121V79Z" fill="#D3C0DE"/>
<path d="M145 79H139V85H145V79Z" fill="#D3C0DE"/>
<path d="M163 79H157V85H163V79Z" fill="#D3C0DE"/>
<path d="M181 79H175V85H181V79Z" fill="#D3C0DE"/>
<path d="M19 85H13V91H19V85Z" fill="#D3C0DE"/>
<path d="M25 85H19V91H25V85Z" fill="#D3C0DE"/>
<path d="M31 85H25V91H31V85Z" fill="#D3C0DE"/>
<path d="M55 85H49V91H55V85Z" fill="#D3C0DE"/>
<path d="M61 85H55V91H61V85Z" fill="#D3C0DE"/>
<path d="M67 85H61V91H67V85Z" fill="#D3C0DE"/>
<path d="M91 85H85V91H91V85Z" fill="#D3C0DE"/>
<path d="M109 85H103V91H109V85Z" fill="#D3C0DE"/>
<path d="M115 85H109V91H115V85Z" fill="#D3C0DE"/>
<path d="M121 85H115V91H121V85Z" fill="#D3C0DE"/>
<path d="M145 85H139V91H145V85Z" fill="#D3C0DE"/>
<path d="M151 85H145V91H151V85Z" fill="#D3C0DE"/>
<path d="M169 85H163V91H169V85Z" fill="#D3C0DE"/>
<path d="M181 85H175V91H181V85Z" fill="#D3C0DE"/>
<path d="M187 85H181V91H187V85Z" fill="#D3C0DE"/>
<path d="M43 91H37V97H43V91Z" fill="#D3C0DE"/>
<path d="M61 91H55V97H61V91Z" fill="#D3C0DE"/>
<path d="M67 91H61V97H67V91Z" fill="#D3C0DE"/>
<path d="M73 91H67V97H73V91Z" fill="#D3C0DE"/>
<path d="M85 91H79V97H85V91Z" fill="#D3C0DE"/>
<path d="M91 91H85V97H91V91Z" fill="#D3C0DE"/>
<path d="M97 91H91V97H97V91Z" fill="#D3C0DE"/>
<path d="M139 91H133V97H139V91Z" fill="#D3C0DE"/>
<path d="M145 91H139V97H145V91Z" fill="#D3C0DE"/>
<path d="M151 91H145V97H151V91Z" fill="#D3C0DE"/>
<path d="M169 91H163V97H169V91Z" fill="#D3C0DE"/>
<path d="M187 91H181V97H187V91Z" fill="#D3C0DE"/>
<path d="M19 97H13V103H19V97Z" fill="#D3C0DE"/>
<path d="M43 97H37V103H43V97Z" fill="#D3C0DE"/>
<path d="M49 97H43V103H49V97Z" fill="#D3C0DE"/>
<path d="M55 97H49V103H55V97Z" fill="#D3C0DE"/>
<path d="M61 97H55V103H61V97Z" fill="#D3C0DE"/>
<path d="M67 97H61V103H67V97Z" fill="#D3C0DE"/>
<path d="M73 97H67V103H73V97Z" fill="#D3C0DE"/>
<path d="M79 97H73V103H79V97Z" fill="#D3C0DE"/>
<path d="M85 97H79V103H85V97Z" fill="#D3C0DE"/>
<path d="M91 97H85V103H91V97Z" fill="#D3C0DE"/>
<path d="M103 97H97V103H103V97Z" fill="#D3C0DE"/>
<path d="M115 97H109V103H115V97Z" fill="#D3C0DE"/>
<path d="M121 97H115V103H121V97Z" fill="#D3C0DE"/>
<path d="M139 97H133V103H139V97Z" fill="#D3C0DE"/>
<path d="M145 97H139V103H145V97Z" fill="#D3C0DE"/>
<path d="M157 97H151V103H157V97Z" fill="#D3C0DE"/>
<path d="M163 97H157V103H163V97Z" fill="#D3C0DE"/>
<path d="M169 97H163V103H169V97Z" fill="#D3C0DE"/>
<path d="M181 97H175V103H181V97Z" fill="#D3C0DE"/>
<path d="M187 97H181V103H187V97Z" fill="#D3C0DE"/>
<path d="M19 103H13V109H19V103Z" fill="#D3C0DE"/>
<path d="M25 103H19V109H25V103Z" fill="#D3C0DE"/>
<path d="M31 103H25V109H31V103Z" fill="#D3C0DE"/>
<path d="M37 103H31V109H37V103Z" fill="#D3C0DE"/>
<path d="M43 103H37V109H43V103Z" fill="#D3C0DE"/>
<path d="M61 103H55V109H61V103Z" fill="#D3C0DE"/>
<path d="M67 103H61V109H67V103Z" fill="#D3C0DE"/>
<path d="M73 103H67V109H73V103Z" fill="#D3C0DE"/>
<path d="M79 103H73V109H79V103Z" fill="#D3C0DE"/>
<path d="M91 103H85V109H91V103Z" fill="#D3C0DE"/>
<path d="M97 103H91V109H97V103Z" fill="#D3C0DE"/>
<path d="M103 103H97V109H103V103Z" fill="#D3C0DE"/>
<path d="M109 103H103V109H109V103Z" fill="#D3C0DE"/>
<path d="M121 103H115V109H121V103Z" fill="#D3C0DE"/>
<path d="M127 103H121V109H127V103Z" fill="#D3C0DE"/>
<path d="M133 103H127V109H133V103Z" fill="#D3C0DE"/>
<path d="M139 103H133V109H139V103Z" fill="#D3C0DE"/>
<path d="M151 103H145V109H151V103Z" fill="#D3C0DE"/>
<path d="M169 103H163V109H169V103Z" fill="#D3C0DE"/>
<path d="M181 103H175V109H181V103Z" fill="#D3C0DE"/>
<path d="M19 109H13V115H19V109Z" fill="#D3C0DE"/>
<path d="M43 109H37V115H43V109Z" fill="#D3C0DE"/>
<path d="M49 109H43V115H49V109Z" fill="#D3C0DE"/>
<path d="M55 109H49V115H55V109Z" fill="#D3C0DE"/>
<path d="M61 109H55V115H61V109Z" fill="#D3C0DE"/>
<path d="M85 109H79V115H85V109Z" fill="#D3C0DE"/>
<path d="M103 109H97V115H103V109Z" fill="#D3C0DE"/>
<path d="M109 109H103V115H109V109Z" fill="#D3C0DE"/>
<path d="M115 109H109V115H115V109Z" fill="#D3C0DE"/>
<path d="M121 109H115V115H121V109Z" fill="#D3C0DE"/>
<path d="M145 109H139V115H145V109Z" fill="#D3C0DE"/>
<path d="M151 109H145V115H151V109Z" fill="#D3C0DE"/>
<path d="M169 109H163V115H169V109Z" fill="#D3C0DE"/>
<path d="M181 109H175V115H181V109Z" fill="#D3C0DE"/>
<path d="M187 109H181V115H187V109Z" fill="#D3C0DE"/>
<path d="M37 115H31V121H37V115Z" fill="#D3C0DE"/>
<path d="M43 115H37V121H43V115Z" fill="#D3C0DE"/>
<path d="M49 115H43V121H49V115Z" fill="#D3C0DE"/>
<path d="M85 115H79V121H85V115Z" fill="#D3C0DE"/>
<path d="M103 115H97V121H103V115Z" fill="#D3C0DE"/>
<path d="M115 115H109V121H115V115Z" fill="#D3C0DE"/>
<path d="M139 115H133V121H139V115Z" fill="#D3C0DE"/>
<path d="M151 115H145V121H151V115Z" fill="#D3C0DE"/>
<path d="M169 115H163V121H169V115Z" fill="#D3C0DE"/>
<path d="M175 115H169V121H175V115Z" fill="#D3C0DE"/>
<path d="M187 115H181V121H187V115Z" fill="#D3C0DE"/>
<path d="M19 121H13V127H19V121Z" fill="#D3C0DE"/>
<path d="M37 121H31V127H37V121Z" fill="#D3C0DE"/>
<path d="M49 121H43V127H49V121Z" fill="#D3C0DE"/>
<path d="M55 121H49V127H55V121Z" fill="#D3C0DE"/>
<path d="M61 121H55V127H61V121Z" fill="#D3C0DE"/>
<path d="M67 121H61V127H67V121Z" fill="#D3C0DE"/>
<path d="M97 121H91V127H97V121Z" fill="#D3C0DE"/>
<path d="M115 121H109V127H115V121Z" fill="#D3C0DE"/>
<path d="M139 121H133V127H139V121Z" fill="#D3C0DE"/>
<path d="M145 121H139V127H145V121Z" fill="#D3C0DE"/>
<path d="M151 121H145V127H151V121Z" fill="#D3C0DE"/>
<path d="M163 121H157V127H163V121Z" fill="#D3C0DE"/>
<path d="M181 121H175V127H181V121Z" fill="#D3C0DE"/>
<path d="M187 121H181V127H187V121Z" fill="#D3C0DE"/>
<path d="M25 127H19V133H25V127Z" fill="#D3C0DE"/>
<path d="M37 127H31V133H37V127Z" fill="#D3C0DE"/>
<path d="M49 127H43V133H49V127Z" fill="#D3C0DE"/>
<path d="M67 127H61V133H67V127Z" fill="#D3C0DE"/>
<path d="M73 127H67V133H73V127Z" fill="#D3C0DE"/>
<path d="M85 127H79V133H85V127Z" fill="#D3C0DE"/>
<path d="M109 127H103V133H109V127Z" fill="#D3C0DE"/>
<path d="M115 127H109V133H115V127Z" fill="#D3C0DE"/>
<path d="M121 127H115V133H121V127Z" fill="#D3C0DE"/>
<path d="M127 127H121V133H127V127Z" fill="#D3C0DE"/>
<path d="M139 127H133V133H139V127Z" fill="#D3C0DE"/>
<path d="M157 127H151V133H157V127Z" fill="#D3C0DE"/>
<path d="M169 127H163V133H169V127Z" fill="#D3C0DE"/>
<path d="M181 127H175V133H181V127Z" fill="#D3C0DE"/>
<path d="M19 133H13V139H19V133Z" fill="#D3C0DE"/>
<path d="M31 133H25V139H31V133Z" fill="#D3C0DE"/>
<path d="M43 133H37V139H43V133Z" fill="#D3C0DE"/>
<path d="M49 133H43V139H49V133Z" fill="#D3C0DE"/>
<path d="M55 133H49V139H55V133Z" fill="#D3C0DE"/>
<path d="M61 133H55V139H61V133Z" fill="#D3C0DE"/>
<path d="M67 133H61V139H67V133Z" fill="#D3C0DE"/>
<path d="M79 133H73V139H79V133Z" fill="#D3C0DE"/>
<path d="M91 133H85V139H91V133Z" fill="#D3C0DE"/>
<path d="M121 133H115V139H121V133Z" fill="#D3C0DE"/>
<path d="M127 133H121V139H127V133Z" fill="#D3C0DE"/>
<path d="M133 133H127V139H133V133Z" fill="#D3C0DE"/>
<path d="M139 133H133V139H139V133Z" fill="#D3C0DE"/>
<path d="M145 133H139V139H145V133Z" fill="#D3C0DE"/>
<path d="M151 133H145V139H151V133Z" fill="#D3C0DE"/>
<path d="M157 133H151V139H157V133Z" fill="#D3C0DE"/>
<path d="M163 133H157V139H163V133Z" fill="#D3C0DE"/>
<path d="M67 139H61V145H67V139Z" fill="#D3C0DE"/>
<path d="M85 139H79V145H85V139Z" fill="#D3C0DE"/>
<path d="M91 139H85V145H91V139Z" fill="#D3C0DE"/>
<path d="M97 139H91V145H97V139Z" fill="#D3C0DE"/>
<path d="M115 139H109V145H115V139Z" fill="#D3C0DE"/>
<path d="M133 139H127V145H133V139Z" fill="#D3C0DE"/>
<path d="M139 139H133V145H139V139Z" fill="#D3C0DE"/>
<path d="M163 139H157V145H163V139Z" fill="#D3C0DE"/>
<path d="M175 139H169V145H175V139Z" fill="#D3C0DE"/>
<path d="M181 139H175V145H181V139Z" fill="#D3C0DE"/>
<path d="M187 139H181V145H187V139Z" fill="#D3C0DE"/>
<path d="M19 145H13V151H19V145Z" fill="#D3C0DE"/>
<path d="M25 145H19V151H25V145Z" fill="#D3C0DE"/>
<path d="M31 145H25V151H31V145Z" fill="#D3C0DE"/>
<path d="M37 145H31V151H37V145Z" fill="#D3C0DE"/>
<path d="M43 145H37V151H43V145Z" fill="#D3C0DE"/>
<path d="M49 145H43V151H49V145Z" fill="#D3C0DE"/>
<path d="M55 145H49V151H55V145Z" fill="#D3C0DE"/>
<path d="M67 145H61V151H67V145Z" fill="#D3C0DE"/>
<path d="M79 145H73V151H79V145Z" fill="#D3C0DE"/>
<path d="M85 145H79V151H85V145Z" fill="#D3C0DE"/>
<path d="M91 145H85V151H91V145Z" fill="#D3C0DE"/>
<path d="M103 145H97V151H103V145Z" fill="#D3C0DE"/>
<path d="M115 145H109V151H115V145Z" fill="#D3C0DE"/>
<path d="M121 145H115V151H121V145Z" fill="#D3C0DE"/>
<path d="M133 145H127V151H133V145Z" fill="#D3C0DE"/>
<path d="M139 145H133V151H139V145Z" fill="#D3C0DE"/>
<path d="M151 145H145V151H151V145Z" fill="#D3C0DE"/>
<path d="M163 145H157V151H163V145Z" fill="#D3C0DE"/>
<path d="M169 145H163V151H169V145Z" fill="#D3C0DE"/>
<path d="M181 145H175V151H181V145Z" fill="#D3C0DE"/>
<path d="M187 145H181V151H187V145Z" fill="#D3C0DE"/>
<path d="M19 151H13V157H19V151Z" fill="#D3C0DE"/>
<path d="M55 151H49V157H55V151Z" fill="#D3C0DE"/>
<path d="M67 151H61V157H67V151Z" fill="#D3C0DE"/>
<path d="M79 151H73V157H79V151Z" fill="#D3C0DE"/>
<path d="M91 151H85V157H91V151Z" fill="#D3C0DE"/>
<path d="M97 151H91V157H97V151Z" fill="#D3C0DE"/>
<path d="M103 151H97V157H103V151Z" fill="#D3C0DE"/>
<path d="M115 151H109V157H115V151Z" fill="#D3C0DE"/>
<path d="M121 151H115V157H121V151Z" fill="#D3C0DE"/>
<path d="M133 151H127V157H133V151Z" fill="#D3C0DE"/>
<path d="M139 151H133V157H139V151Z" fill="#D3C0DE"/>
<path d="M163 151H157V157H163V151Z" fill="#D3C0DE"/>
<path d="M169 151H163V157H169V151Z" fill="#D3C0DE"/>
<path d="M181 151H175V157H181V151Z" fill="#D3C0DE"/>
<path d="M187 151H181V157H187V151Z" fill="#D3C0DE"/>
<path d="M19 157H13V163H19V157Z" fill="#D3C0DE"/>
<path d="M31 157H25V163H31V157Z" fill="#D3C0DE"/>
<path d="M37 157H31V163H37V157Z" fill="#D3C0DE"/>
<path d="M43 157H37V163H43V157Z" fill="#D3C0DE"/>
<path d="M55 157H49V163H55V157Z" fill="#D3C0DE"/>
<path d="M67 157H61V163H67V157Z" fill="#D3C0DE"/>
<path d="M85 157H79V163H85V157Z" fill="#D3C0DE"/>
<path d="M103 157H97V163H103V157Z" fill="#D3C0DE"/>
<path d="M109 157H103V163H109V157Z" fill="#D3C0DE"/>
<path d="M115 157H109V163H115V157Z" fill="#D3C0DE"/>
<path d="M121 157H115V163H121V157Z" fill="#D3C0DE"/>
<path d="M139 157H133V163H139V157Z" fill="#D3C0DE"/>
<path d="M145 157H139V163H145V157Z" fill="#D3C0DE"/>
<path d="M151 157H145V163H151V157Z" fill="#D3C0DE"/>
<path d="M157 157H151V163H157V157Z" fill="#D3C0DE"/>
<path d="M163 157H157V163H163V157Z" fill="#D3C0DE"/>
<path d="M187 157H181V163H187V157Z" fill="#D3C0DE"/>
<path d="M19 163H13V169H19V163Z" fill="#D3C0DE"/>
<path d="M31 163H25V169H31V163Z" fill="#D3C0DE"/>
<path d="M37 163H31V169H37V163Z" fill="#D3C0DE"/>
<path d="M43 163H37V169H43V163Z" fill="#D3C0DE"/>
<path d="M55 163H49V169H55V163Z" fill="#D3C0DE"/>
<path d="M73 163H67V169H73V163Z" fill="#D3C0DE"/>
<path d="M85 163H79V169H85V163Z" fill="#D3C0DE"/>
<path d="M103 163H97V169H103V163Z" fill="#D3C0DE"/>
<path d="M121 163H115V169H121V163Z" fill="#D3C0DE"/>
<path d="M163 163H157V169H163V163Z" fill="#D3C0DE"/>
<path d="M175 163H169V169H175V163Z" fill="#D3C0DE"/>
<path d="M181 163H175V169H181V163Z" fill="#D3C0DE"/>
<path d="M187 163H181V169H187V163Z" fill="#D3C0DE"/>
<path d="M19 169H13V175H19V169Z" fill="#D3C0DE"/>
<path d="M31 169H25V175H31V169Z" fill="#D3C0DE"/>
<path d="M37 169H31V175H37V169Z" fill="#D3C0DE"/>
<path d="M43 169H37V175H43V169Z" fill="#D3C0DE"/>
<path d="M55 169H49V175H55V169Z" fill="#D3C0DE"/>
<path d="M67 169H61V175H67V169Z" fill="#D3C0DE"/>
<path d="M79 169H73V175H79V169Z" fill="#D3C0DE"/>
<path d="M97 169H91V175H97V169Z" fill="#D3C0DE"/>
<path d="M127 169H121V175H127V169Z" fill="#D3C0DE"/>
<path d="M133 169H127V175H133V169Z" fill="#D3C0DE"/>
<path d="M139 169H133V175H139V169Z" fill="#D3C0DE"/>
<path d="M145 169H139V175H145V169Z" fill="#D3C0DE"/>
<path d="M157 169H151V175H157V169Z" fill="#D3C0DE"/>
<path d="M163 169H157V175H163V169Z" fill="#D3C0DE"/>
<path d="M169 169H163V175H169V169Z" fill="#D3C0DE"/>
<path d="M187 169H181V175H187V169Z" fill="#D3C0DE"/>
<path d="M19 175H13V181H19V175Z" fill="#D3C0DE"/>
<path d="M55 175H49V181H55V175Z" fill="#D3C0DE"/>
<path d="M67 175H61V181H67V175Z" fill="#D3C0DE"/>
<path d="M73 175H67V181H73V175Z" fill="#D3C0DE"/>
<path d="M85 175H79V181H85V175Z" fill="#D3C0DE"/>
<path d="M121 175H115V181H121V175Z" fill="#D3C0DE"/>
<path d="M127 175H121V181H127V175Z" fill="#D3C0DE"/>
<path d="M133 175H127V181H133V175Z" fill="#D3C0DE"/>
<path d="M139 175H133V181H139V175Z" fill="#D3C0DE"/>
<path d="M145 175H139V181H145V175Z" fill="#D3C0DE"/>
<path d="M163 175H157V181H163V175Z" fill="#D3C0DE"/>
<path d="M181 175H175V181H181V175Z" fill="#D3C0DE"/>
<path d="M19 181H13V187H19V181Z" fill="#D3C0DE"/>
<path d="M25 181H19V187H25V181Z" fill="#D3C0DE"/>
<path d="M31 181H25V187H31V181Z" fill="#D3C0DE"/>
<path d="M37 181H31V187H37V181Z" fill="#D3C0DE"/>
<path d="M43 181H37V187H43V181Z" fill="#D3C0DE"/>
<path d="M49 181H43V187H49V181Z" fill="#D3C0DE"/>
<path d="M55 181H49V187H55V181Z" fill="#D3C0DE"/>
<path d="M67 181H61V187H67V181Z" fill="#D3C0DE"/>
<path d="M73 181H67V187H73V181Z" fill="#D3C0DE"/>
<path d="M91 181H85V187H91V181Z" fill="#D3C0DE"/>
<path d="M115 181H109V187H115V181Z" fill="#D3C0DE"/>
<path d="M121 181H115V187H121V181Z" fill="#D3C0DE"/>
<path d="M133 181H127V187H133V181Z" fill="#D3C0DE"/>
<path d="M139 181H133V187H139V181Z" fill="#D3C0DE"/>
<path d="M145 181H139V187H145V181Z" fill="#D3C0DE"/>
<path d="M157 181H151V187H157V181Z" fill="#D3C0DE"/>
<path d="M181 181H175V187H181V181Z" fill="#D3C0DE"/>
<path d="M187 181H181V187H187V181Z" fill="#D3C0DE"/>
</svg>
