<svg width="12" height="12" viewBox="0 0 12 12" fill="none" xmlns="http://www.w3.org/2000/svg">
<path fill-rule="evenodd" clip-rule="evenodd" d="M1.31411 0.000488281H9.76697C10.4852 0.000488281 11.0674 0.582715 11.0674 1.30093V9.81022C11.0674 10.5284 10.4852 11.1107 9.76697 11.1107H1.31411C0.595898 11.1107 0.0136719 10.5284 0.0136719 9.81022V1.30093C0.0136719 0.582715 0.595899 0.000488281 1.31411 0.000488281ZM4.02152 8.97614C3.08608 8.97614 2.21344 8.70476 1.47778 8.23581L1.47732 8.23569C2.91574 8.45156 3.92904 7.53151 3.92904 7.53151C2.6476 7.43133 2.3944 6.35945 2.3944 6.35945C2.84717 6.43648 3.13098 6.32844 3.13098 6.32844C1.68866 5.98925 1.81134 4.66266 1.81134 4.66266C2.14535 4.86325 2.53251 4.87875 2.53251 4.87875C1.25891 3.75274 2.05694 2.65772 2.05694 2.65772C3.39223 4.28301 5.35501 4.39361 5.4839 4.39893C5.4556 4.27677 5.44063 4.14953 5.44063 4.01881C5.44063 3.09247 6.18802 2.34148 7.11037 2.34148C7.59122 2.34148 8.02442 2.54553 8.32918 2.87245C8.41366 2.84863 8.49559 2.82294 8.57386 2.7968C9.04666 2.63832 9.38434 2.45716 9.38434 2.45716C9.30285 2.94785 8.70093 3.35969 8.65788 3.3886C8.65628 3.38974 8.65536 3.39021 8.65536 3.39021L8.65834 3.38999C9.12559 3.34301 9.603 3.14359 9.603 3.14359C9.4589 3.44806 8.87101 3.92167 8.77595 3.99685C8.77848 4.06211 8.77986 4.12757 8.77986 4.19351C8.77986 6.83469 6.64952 8.97614 4.02152 8.97614Z" fill="#F8F4F8"/>
</svg>
