<svg width="39" height="39" viewBox="0 0 39 39" fill="none" xmlns="http://www.w3.org/2000/svg">
<path d="M39 0H0V39H39V0Z" fill="#50ABF1"/>
<path d="M5.16691 28.9096C7.76245 30.5557 10.8413 31.5084 14.1418 31.5084C23.4139 31.5084 30.9302 23.9912 30.9302 14.7199C30.9302 14.4884 30.9254 14.2587 30.9165 14.0296C31.2518 13.7657 33.326 12.1032 33.8345 11.0344C33.8345 11.0344 32.15 11.7344 30.5015 11.8993C30.4982 11.8993 30.4942 11.9001 30.491 11.9001C30.491 11.9001 30.4942 11.8985 30.4999 11.8944C30.6518 11.7929 32.7754 10.3473 33.063 8.62481C33.063 8.62481 31.8716 9.26073 30.2034 9.81707C29.9273 9.90881 29.6382 9.999 29.3401 10.0826C28.2649 8.93503 26.7365 8.21875 25.0399 8.21875C21.7857 8.21875 19.1487 10.8549 19.1487 14.1067C19.1487 14.5656 19.2015 15.0122 19.3014 15.441C18.8466 15.4223 11.9215 15.0341 7.21031 9.32885C7.21031 9.32885 4.39466 13.1727 8.88822 17.1253C8.88822 17.1253 7.52224 17.0709 6.34376 16.3668C6.34376 16.3668 5.91091 21.0235 10.9997 22.2142C10.9997 22.2142 9.9984 22.5934 8.40094 22.323C8.40094 22.323 9.29428 26.0856 13.8155 26.4373C13.8155 26.4373 10.2403 29.6669 5.16528 28.9092L5.16691 28.9096Z" fill="white"/>
</svg>
