<svg width="854" height="441" fill="none" xmlns="http://www.w3.org/2000/svg"><path d="M853.704 427.445H0c34.377-214.742 212.403-378.36 426.852-378.36 214.45 0 392.475 163.618 426.852 378.36z" fill="url(#paint0_linear)"/><g clip-path="url(#clip0)"><path d="M565.072 211.304s-27.678-5.899-24.175 6.638c3.504 12.536 26.628 4.424 26.628 4.424l-2.453-11.062z" fill="#FFB8B8"/><path d="M624.784 145.085c.345-.33.767-.556 1.224-.655a2.467 2.467 0 011.369.093c.441.159.832.441 1.134.814.301.374.502.826.58 1.309l.946 5.783s4.277 23.131.615 37.823c-3.662 14.693-6.261 34.047-16.156 36.109-8.468 1.764-40.665-1.03-49.78-1.873a2.553 2.553 0 01-1.706-.899 2.816 2.816 0 01-.66-1.883l.17-8.44a2.815 2.815 0 01.684-1.791 2.559 2.559 0 011.638-.87l36.863-4.137a2.537 2.537 0 001.531-.752 2.78 2.78 0 00.766-1.584c.877-6.6 3.713-27.063 6.529-37.821 2.276-8.694 9.75-16.902 14.253-21.226z" fill="#F3F4F6"/><path d="M773.558 425.97H519.172v1.275h254.386v-1.275z" fill="#3F3D56"/><path d="M600.833 391.775v17.699l9.46 2.212 6.307-3.319-.701-14.011-15.066-2.581z" fill="#FFB8B8"/><path d="M656.711 391.775v17.699l9.461 2.212 6.306-3.319-.701-14.011-15.066-2.581z" fill="#B69A71"/><path d="M619.754 247.968s-12.613 26.917-12.263 47.935a303.323 303.323 0 01-1.751 37.979l-6.307 63.053 20.321 1.106 9.46-67.846 18.219-52.36 7.007 62.315 1.752 62.685h17.518s8.058-59.366 3.504-72.64c0 0 10.511-74.484 2.102-78.171-8.409-3.687-59.562-4.056-59.562-4.056z" fill="#2F2E41"/><path d="M607.137 404.679s-3.503-13.643-8.408-6.637c-4.905 7.006-18.92 18.805-18.92 18.805s-21.021 11.8-1.752 14.749c19.27 2.95 21.373-3.687 21.373-3.687s3.153-1.844 5.956-.737c2.803 1.106 15.065.737 15.766-3.688.701-4.425-3.854-28.761-5.255-24.336-1.402 4.425-8.76 5.531-8.76 5.531zM671.602 404.309s0-4.056-6.657-4.425c-6.656-.368-7.708 4.425-7.708 4.425s-1.751 1.844-2.102 7.375c-.35 5.531 0 19.911 0 19.911s-3.153 11.062 11.212 8.85c14.365-2.212 9.109-13.643 9.109-13.643l-3.854-22.493z" fill="#2F2E41"/><path d="M646.03 110.431l-1.752 20.649-3.153 7.743 8.409 12.537 20.671-20.28s-3.854-11.062-1.401-17.33l-22.774-3.319z" fill="#FFB8B8"/><path d="M692.975 145.83l-.161 1.818-6.145 68.978s-.242 3.208-.69 7.485c-.757 7.235-2.103 17.526-3.865 20.539-2.803 4.793-.701 8.849-.701 8.849-16.116 9.956-63.766-4.425-63.766-4.425l10.862-45.722s-9.81-47.567-8.759-51.991c1.051-4.425 23.124-20.281 23.124-20.281l.651 1.844c9.407 13.274 18.969 1.844 21.772-.737l5.606-5.163 22.072 18.806z" fill="white"/><path d="M620.927 272.345c-33.403 4.77-65.269 6.515-94.756 3.579a218.23 218.23 0 01-31.081-5.617c-18.749-4.671-41.764-4.671-67.049-2.184a184.174 184.174 0 00-45.132 10.074c-19.595 7.138-41.061 6.52-63.82.544a113.049 113.049 0 01-26.796-11.229c-16.639-9.41-36.33-6.003-57.792 4.833v-84.141c20.037-9.184 39.556-10.666 58.455-2.924a118.975 118.975 0 0021.284 6.682c26.265 5.402 53.378 4.114 79.073-3.758 34.748-12.391 71.095-8.539 107.903 0 41.009 9.116 80.978 9.653 119.711 0v84.141z" fill="white"/><path d="M339.89 425.97H85.503v1.275H339.89v-1.275z" fill="#3F3D56"/><path d="M474.449 350.346l19.129-11.623-11.044-20.132-19.129 11.623 11.044 20.132zM329.478 133.107l19.129-11.623-11.044-20.132-19.129 11.623 11.044 20.132zM523.901 106.335l19.129-11.623-11.044-20.132-19.13 11.623 11.045 20.132z" fill="white"/><path d="M193.83 270.017l11.567 56.356-35.128 82.956 20.562 9.469 39.412-95.13-25.194-83.545-14.994 4.058 3.775 25.836z" fill="#2F2E41"/><path d="M183.546 254.52s4.284 8.116 13.708 14.878c9.425 6.763 29.131 51.397 29.131 51.397l-21.42 90.17 29.56 8.567 16.278-105.95-33.414-79.35-33.843 20.288zM172.839 406.174s-4.284 4.959-2.571 8.566c1.714 3.607 2.571 13.075 2.571 13.075h3.855v-10.821l12.424 12.173s28.702 2.705 28.273 0c-.428-2.705-17.135-9.017-17.135-9.017l-8.14-13.074-19.277-.902z" fill="#2F2E41"/><path d="M210.537 407.361s-4.284 4.959-2.57 8.566c1.713 3.607 2.57 13.075 2.57 13.075h3.855v-10.821l12.424 12.173s28.702 2.705 28.274 0c-.429-2.705-17.136-9.017-17.136-9.017l-8.139-13.074-19.278-.902z" fill="#2F2E41"/><path d="M200.258 130.988c8.99 0 16.279-7.671 16.279-17.133 0-9.461-7.289-17.132-16.279-17.132-8.991 0-16.279 7.671-16.279 17.132 0 9.462 7.288 17.133 16.279 17.133z" fill="#FFB8B8"/><path d="M186.979 114.757s-1.286 17.133-9.425 23.445c-8.139 6.312-8.139 11.722-8.139 11.722l32.986 15.78-7.711-17.133s-2.142-.902 1.285-5.41c3.427-4.509 6.426-15.329 6.426-15.329l-15.422-13.075z" fill="#FFB8B8"/><path d="M220.603 236.262c-8.913 8.189-19.239 14.497-30.416 18.582l-7.775 2.841s-16.441-20.999-8.139-37.546c1.705-3.497 4.144-6.54 7.133-8.899l-.172-.789-4.168-19.139-.373-1.713-12.423-3.156s-.039.013-.112.031c-.929.257-7.231 1.475-2.458-14.008 3.174-10.302 5.476-20.11 6.773-26.106a6.528 6.528 0 01.995-2.324 6.165 6.165 0 011.782-1.726 5.851 5.851 0 012.283-.852 5.758 5.758 0 012.417.16c3.978 1.148 8.92 3.328 11.881 7.404 5.57 7.665 6.694-.339 6.694-.339s15.583 18.373 14.726 26.488a34 34 0 00.188 6.529v.009c.103.965.228 1.97.369 2.998 1.062 7.592 3.119 16.415 3.873 19.517l.141.577c.09.375.141.577.141.577l6.64 30.884z" fill="white"/><path opacity=".2" d="M198.542 213.495l-3.427 12.173s-13.143-3.526-20.841-5.528c1.705-3.497 4.144-6.541 7.133-8.9l-.172-.789-4.168-19.138-.373-1.713-12.423-3.156s-.039.013-.112.031l-.745-5.892s21.42 1.352 22.705 6.762c1.285 5.411-1.285 10.821-2.571 11.722-1.285.902 0 0 2.571 1.353 2.57 1.353-.857 0-2.571 2.705-1.713 2.705.429.451.857 1.803.429 1.353 0-.45-.428 1.804-.429 2.254 1.713.451 2.142.451.428 0 12.423 6.312 12.423 6.312z" fill="black"/><path d="M194.685 211.241l27.846 7.664s14.993-16.231 23.133-11.271c8.139 4.959-14.566 16.23-14.566 16.23l-8.139 1.804-29.559-3.607 1.285-10.82z" fill="#FFB8B8"/><path d="M163.414 178.778l1.714 13.525s-1.286 0 0 3.156c1.285 3.156 0 9.468 0 9.468s-2.571.451-.429 1.804c2.142 1.352 4.284 4.959 3.427 6.312-.856 1.352-2.57 3.155 1.286 4.057 3.855.902 25.703 6.763 25.703 6.763l3.427-12.173s-11.995-6.312-12.423-6.312c-.429 0-2.571 1.803-2.142-.451.428-2.254.857-.451.428-1.803-.428-1.353-2.57.901-.857-1.804 1.714-2.705 5.141-1.352 2.571-2.705-2.571-1.352-3.856-.451-2.571-1.352 1.286-.902 3.856-6.312 2.571-11.722-1.285-5.411-22.705-6.763-22.705-6.763zM196.503 144.133l1.291-2.16a4.714 4.714 0 00.551-3.403 4.514 4.514 0 00-1.897-2.816l-9.836-6.51a4.108 4.108 0 00-3.233-.58 4.298 4.298 0 00-2.675 1.997l-1.291 2.16a4.115 4.115 0 00-2.081.555 4.39 4.39 0 00-1.562 1.549l-3.176 5.315a4.714 4.714 0 00-.551 3.403 4.514 4.514 0 001.897 2.816l13.254 8.773a4.107 4.107 0 003.233.579c1.108-.265 2.07-.984 2.675-1.996l3.177-5.315a4.712 4.712 0 00.224-4.367z" fill="#F3F4F6"/><path d="M199.69 113.561c.911-1.4.512-3.345 1.164-4.897 1.023-2.436 4.041-2.936 6.568-3.096a18.396 18.396 0 015.031.142 4.71 4.71 0 012.021.951 5.04 5.04 0 011.407 1.8c.354.797.317-1.672.151-4.845-.168-3.238-1.308-6.337-3.256-8.849-1.948-2.512-4.604-4.31-7.584-5.131l-.106-.029c-3.053-.823-6.205-1.453-9.343-1.145-3.139.307-6.29 1.649-8.303 4.201-.92 1.167-1.583 2.553-2.605 3.622-1.795 1.877-4.406 2.51-6.81 3.342a20.025 20.025 0 00-7.482 4.292c-2.185 2.002-3.533 4.829-3.75 7.869-.132 3.511 1.908 7.19 5.313 7.97a3.755 3.755 0 011.623.787c3.205 2.748-.585 5.443-.628 8.445-.036 2.504 2.574 4.203 4.948 4.381 2.221.099 4.406-.619 6.179-2.029 1.774-1.411 3.026-3.426 3.542-5.702.406-2.046.177-4.163-.008-6.244-.212-2.381 4.776-7.849 1.472-3.832a5.992 5.992 0 00-1.29 2.688c-.61 3.261 2.196 4.434 3.94 6.294a7.927 7.927 0 011.898 3.788 8.172 8.172 0 01-.292 4.272c1.505-1.366 2.509-3.242 2.84-5.305a9.38 9.38 0 00-1.029-5.991c-.553-.943-1.276-1.769-1.799-2.731-.817-1.501-.978-4.725 1.402-4.575 1.699.106 3.431 1.641 4.786-.443z" fill="#2F2E41"/><path d="M657.94 120.387c9.868 0 17.868-8.419 17.868-18.805s-8-18.805-17.868-18.805c-9.869 0-17.869 8.42-17.869 18.805 0 10.386 8 18.805 17.869 18.805z" fill="#FFB8B8"/><path opacity=".2" d="M692.117 148.383l-6.145 68.979s-.242 3.208-.69 7.485c-13.044 3.282-49.061 5.789-49.061 5.789l-1.752-13.274 39.941-11.431s-4.905-28.761.701-40.56a93.603 93.603 0 003.678-8.822c.982-2.773 2.847-5.102 5.277-6.591a11.657 11.657 0 018.051-1.575z" fill="black"/><path d="M638.322 215.52s-27.679-5.9-24.176 6.637c3.504 12.537 26.628 4.425 26.628 4.425l-2.452-11.062z" fill="#FFB8B8"/><path d="M682.114 143.986l10.861 1.843s7.708 22.124 6.307 37.242c-1.402 15.118-1.051 34.661-10.511 38.348-9.46 3.688-51.854 6.637-51.854 6.637l-1.751-13.274 39.941-11.431s-4.905-28.761.701-40.56c5.605-11.799 6.306-18.805 6.306-18.805z" fill="#F3F4F6"/><path d="M642.708 82.482l-3.435-1.447s7.181-8.32 17.172-7.596l-2.81-3.256s6.869-2.894 13.113 4.702c3.283 3.994 7.081 8.688 9.448 13.976h3.678l-1.535 3.557 5.373 3.557-5.515-.639c.329 1.948.379 3.937.15 5.901-.237 1.964-1.189 3.755-2.656 4.994 0 0-4.26-9.279-4.26-10.726v3.618s-3.434-3.256-3.434-5.426l-1.873 2.532h-12.489l1.873-3.256-7.181 1.085 2.81-3.979-11.118 16.432s-6.366-18.602 2.689-24.029z" fill="#2F2E41"/><path d="M427.714 300.394c36.127 0 65.414-30.822 65.414-68.843s-29.287-68.843-65.414-68.843S362.3 193.53 362.3 231.551s29.287 68.843 65.414 68.843z" fill="white"/><path d="M427.714 300.394c36.127 0 65.414-30.822 65.414-68.843s-29.287-68.843-65.414-68.843S362.3 193.53 362.3 231.551s29.287 68.843 65.414 68.843z" fill="#FECACA"/><path d="M459.816 245.233c0 4.225-14.739 14.821-31.799 14.821s-29.981-10.596-29.981-14.821c0-4.224 12.921 1.435 29.981 1.435 17.06 0 31.799-5.659 31.799-1.435z" fill="white"/><path d="M451.333 219.439c4.014 0 7.268-3.425 7.268-7.65 0-4.224-3.254-7.649-7.268-7.649-4.014 0-7.269 3.425-7.269 7.649 0 4.225 3.255 7.65 7.269 7.65zM404.093 219.439c4.014 0 7.268-3.425 7.268-7.65 0-4.224-3.254-7.649-7.268-7.649-4.014 0-7.268 3.425-7.268 7.649 0 4.225 3.254 7.65 7.268 7.65z" fill="#3F3D56"/><path d="M408.332 211.789c2.007 0 3.634-1.712 3.634-3.824 0-2.113-1.627-3.825-3.634-3.825-2.007 0-3.634 1.712-3.634 3.825 0 2.112 1.627 3.824 3.634 3.824zM445.28 211.789c2.007 0 3.634-1.712 3.634-3.824 0-2.113-1.627-3.825-3.634-3.825-2.007 0-3.634 1.712-3.634 3.825 0 2.112 1.627 3.824 3.634 3.824z" fill="white"/><path d="M428.928 167.168c14.384 0 26.044-12.272 26.044-27.41s-11.66-27.409-26.044-27.409-26.044 12.271-26.044 27.409c0 15.138 11.66 27.41 26.044 27.41z" fill="#FECACA"/><path d="M420.56 142.596c9.198 5.763 9.528 23.032 9.528 23.032s-14.582 7.926-23.78 2.164c-9.198-5.763-9.528-23.032-9.528-23.032s14.583-7.926 23.78-2.164z" fill="#3F3D56"/><path d="M453.103 164.667c-8.312 7.098-23.828 1.467-23.828 1.467s-2.039-17.139 6.274-24.237c8.312-7.098 23.828-1.467 23.828-1.467s2.039 17.139-6.274 24.237z" fill="#3F3D56"/></g><defs><linearGradient id="paint0_linear" x1="171.5" y1="49" x2="834.326" y2="458.82" gradientUnits="userSpaceOnUse"><stop stop-color="#BAE6FD"/><stop offset=".5" stop-color="#FFF4C7"/><stop offset="1" stop-color="#FECACA"/></linearGradient><clipPath id="clip0"><path fill="white" transform="translate(85.503)" d="M0 0h688.055v440.738H0z"/></clipPath></defs></svg>