<svg width="40" height="39" viewBox="0 0 40 39" fill="none" xmlns="http://www.w3.org/2000/svg">
<path d="M17.5712 23.1542L23.9143 19.5009L17.5712 15.8477V23.1542Z" fill="#F56565"/>
<path d="M36.6873 0H3.31271C1.75922 0 0.5 1.25922 0.5 2.81271V36.1873C0.5 37.7408 1.75922 39 3.31271 39H36.6873C38.2408 39 39.5 37.7408 39.5 36.1873V2.81271C39.5 1.25922 38.2408 0 36.6873 0ZM32.1841 19.2826C32.185 19.4421 32.1846 19.5978 32.1829 19.7573C32.1737 20.6385 32.1108 23.755 31.6829 25.3816C31.4017 26.4254 30.5787 27.2484 29.5349 27.5293C27.6279 28.0312 20 28.0312 20 28.0312C20 28.0312 12.392 28.0312 10.4651 27.5094C9.42133 27.2285 8.59832 26.4052 8.31714 25.3614C7.81518 23.4746 7.81518 19.5 7.81518 19.5C7.81518 19.5 7.81518 15.5456 8.31714 13.6386C8.59802 12.5948 9.44127 11.7516 10.4651 11.4707C12.3721 10.9688 20 10.9688 20 10.9688C20 10.9688 27.6279 10.9688 29.5349 11.4906C30.5787 11.7715 31.4017 12.5948 31.6829 13.6386C32.1282 15.266 32.1788 18.3988 32.1841 19.2826Z" fill="#F56565"/>
</svg>
