<svg width="12" height="12" viewBox="0 0 12 12" fill="none" xmlns="http://www.w3.org/2000/svg">
<path d="M4.85156 6.65871L6.64938 5.64771L4.85156 4.63672V6.65871Z" fill="#F8F4F8"/>
<path d="M10.2697 0.250977H0.810386C0.370082 0.250977 0.0131836 0.599448 0.0131836 1.02936V10.2653C0.0131836 10.6952 0.370082 11.0437 0.810386 11.0437H10.2697C10.71 11.0437 11.0669 10.6952 11.0669 10.2653V1.02936C11.0669 0.599448 10.71 0.250977 10.2697 0.250977V0.250977ZM8.9935 5.65286C8.9935 5.65286 8.9935 6.74727 8.85131 7.275C8.77162 7.56386 8.53835 7.79162 8.24251 7.86935C7.70202 8.00826 5.54005 8.00826 5.54005 8.00826C5.54005 8.00826 3.38373 8.00826 2.83759 7.86383C2.54175 7.7861 2.30848 7.55826 2.22879 7.2694C2.08652 6.74727 2.08652 5.64735 2.08652 5.64735C2.08652 5.64735 2.08652 4.55302 2.22879 4.02529C2.3084 3.73643 2.5474 3.50308 2.83759 3.42535C3.37808 3.28643 5.54005 3.28643 5.54005 3.28643C5.54005 3.28643 7.70202 3.28643 8.24251 3.43086C8.53835 3.50859 8.77162 3.73643 8.85131 4.02529C8.99924 4.55302 8.9935 5.65286 8.9935 5.65286Z" fill="#F8F4F8"/>
</svg>
